<svg id="svg4611" xmlns="http://www.w3.org/2000/svg" viewBox="0 0 293.58 208.79"><defs><style>.cls-1{fill:#fffefd}</style></defs><path id="path570" class="cls-1" d="M153.53 37.62c.13-.36.4 0 .65.39a2.7 2.7 0 01.45 1.28 3 3 0 01-1.77 2.93c-.51.15-1.11 0-1.59.27s-.54.76-.94 1.06-1.15 0-1.73.12-1 .67-1.76.23c.78.1 1.18-.58 1.88-.7 1-.17 1.34-.1 1.83-1.07a1.63 1.63 0 01.61-.64 14.23 14.23 0 011.42-.53 1.42 1.42 0 00.93-1.21c.09-.58-.07-1.2 0-1.79a1.33 1.33 0 01.05-.34"/><path id="path574" class="cls-1" d="M166 14.78a3.54 3.54 0 00-1.94 2.48 21.58 21.58 0 01.4-2.64v-.23a7.06 7.06 0 001.31-3.48c0-1.72.54-4.65-2.63-6.25l-1.47.15c3.67 1 3.29 3.54 3.42 5.92a5.65 5.65 0 01-1.24 3.46 8.31 8.31 0 01-1.11.75 1.52 1.52 0 00.92.08c-.21 1.57-.16 2.92.88 3.77a1.62 1.62 0 01-.45-1.24 3.63 3.63 0 013-2.2 3.91 3.91 0 01-1-.6"/><path id="path578" class="cls-1" d="M153.62 49.37c-.15-.23-.3-.48-.43-.72a7 7 0 011.85-9l-1.17-1.43s-.26 1-.25 1.13a1.6 1.6 0 01-.25 1.24c-.6.77-1.75.92-2.08 2a8.78 8.78 0 00-.41 2.44 8.43 8.43 0 00.34 2.69c.09.29 1 2.73 1.3 2.64a1.94 1.94 0 001.1-.91"/><path id="path582" class="cls-1" d="M158 54.18c.27.26.55.51.81.77q2.07 2 4.17 3.87c.82.74 2.36 1.62 2.14 2.92a3.79 3.79 0 01-1 1.65c-.43.55-.83 1.12-1.2 1.7a36.62 36.62 0 00-3.58 7.63 55.26 55.26 0 00-2 7 .59.59 0 01-.16.5 9 9 0 00-1 1.12 15 15 0 00-1.33 1.76v.06c-.58 1 .6 1.65.63 2.81a19 19 0 00.14 2c.08.92.18 1.83.3 2.75.07.46.13.91.21 1.37a3.34 3.34 0 00.1.62l.06.3s0 .24.06.26.13-.31.15-.37.06-.31.1-.47l.3-1.22c.26-1 .52-2 .75-3.07.09-.42.18-.84.26-1.27a44.13 44.13 0 011.64-6.87l.7-1.37a104.54 104.54 0 015.38-9.28c1-1.52 2-3 3.13-4.44.86-1.12 2.8-2.62 2.34-4.22a7.49 7.49 0 00-.41-.86c-.38-.76-.78-1.5-1.2-2.23a78.54 78.54 0 00-4.43-7c-.57-.81-1.32-1.61-2-2.44a7.21 7.21 0 011.07-.55c1.68 2.29 3.29 4.62 4.85 7 .87 1.34 1.72 2.69 2.53 4.07s1.63 3 .54 4.53c-.59.81-1.22 1.59-1.82 2.39-1.63 2.16-3.24 4.33-4.81 6.53-2.13 3-4.49 6.06-6 9.44-.14.3-.74 5.12-1.07 6.12-.16.52-.35 1-.53 1.55-.28.81-.57 1.61-.84 2.42-.13.36-.25.73-.36 1.09-.05.15-.09.3-.13.45s-.05.26-.11.29 0 0-.08 0l-.09-.19c-.06-.14-.13-.28-.19-.43a2.68 2.68 0 01-.27-.68c-.09-.77-.65-4.28-.82-5-.28-1.14-1.69-2.66-1.44-3.84.18-.85 3.1-2.3 3.41-3.09a13.35 13.35 0 00.48-2.67 39.22 39.22 0 01.78-4 27.46 27.46 0 014.11-9.73c.63-.77 1.29-1.51 2-2.22s-.44-1.33-1.12-1.85-1.62-1.27-2.42-1.92q-1.73-1.4-3.39-2.87z"/><path id="path586" class="cls-1" d="M192.76 51.61a15.93 15.93 0 01-.35-3.71c-.2.16-.29-.78-.4-.51a7.31 7.31 0 00-.38 3.76 21.88 21.88 0 002.3 7c3.76 7.75 1 14.42-2.36 15.78 1.75 5.31 4.81 10.39 5.34 16.19a65.41 65.41 0 002.73 13.58c-1-2-2.53-4.38-3.47-6.59-2.53-6-4.18-11.84-5.54-14.25a38.2 38.2 0 00-3.43-5.55 3.88 3.88 0 01-.41 2.83c2.94 3.16 4.16 7.61 6.1 11.48-.07 3.43 6.89 15 8.39 17.5a24.9 24.9 0 012 6.23h5.59a16.57 16.57 0 00-1.69-2.55c-.71-.81-3.23-3.08-3.69-3.77a28 28 0 01-2.49-4.56 27.1 27.1 0 01-2.28-11.51c.2-5.64-2.41-10.32-3.59-15.62-.17-.78-.58-2.31-.58-2.31 1.82-2.36 5.92-8.13.82-15.81-1.31-2-2-5.06-2.61-7.6"/><path id="path590" class="cls-1" d="M210.45 30.73c.37-.41 2.36-2.39 2.19-2.82s-1.87.34-3.58 1.18c-.52-.67-1.08-1.36-1.37-1.67l-.11-.11c1.46-.88 2.76-1.72 2.72-2-.13-.81-2.92-.88-5.72-.52-14.42-9.19-34.18-.11-38.43 15.74-.13.48.17 2.39.1 2.9a6.76 6.76 0 01-2 3.63c.12.08 1.08.19 1.08.23a7.12 7.12 0 00.13 1.39c.08.15 1 1.39 1 1.35v-1.64c1-16.89 18-29.66 32.9-22.45a16.11 16.11 0 015.8 4.75c-.1-.12.29 3.43.18 3.31.38 1.38.16 1.17 0 2.7 0 .6-.88.94-1.5 3.13-.56 2-.8 15-.63 15.72.26 1.1-.36 1.17-.94 1.92a3 3 0 01-1.76 1.32c-1.12.21-.62-1.06-3.82-1.44-.47 0-1.41-5.2-1.47-6.13-.45-6-5.75-12.32-6-13.24 0 0-.26 2.32-.21 2.41.39.69 4.06 6.88 4.53 7.94a23.07 23.07 0 011.31 4.21c.17.79.58 5.21 1 5.63a3.88 3.88 0 002.46 1c.63 0 1.24 1.48 2.31 1.4 1.6-.12 1.74-1.36 2.23-1.73 2.09-1.59 1.28-5 1.32-6.14.13-3.59.81-10.25 1-11.18.46-2.8.77-1.28 1.4-2.41.36-.64-.37-4.77 0-5.1.37-1.21 2.91-2.38 3.79-3.35"/><path id="path594" class="cls-1" d="M139 22.73c.06-.65.92-.73 1.34-.95.7-.36.61-.93.61-1.66 0-1.75-.68-3.9.49-5.45a10.89 10.89 0 014.4-3.52c2.46-1 4.94-2 7.35-3.12a10.45 10.45 0 011.39-.67l1.77-.52a27.11 27.11 0 003.47-1.25 5.77 5.77 0 001.38-.8 1.3 1.3 0 011.15-.39c.21-.31.28-1-.13-1.23-.8-.41-1.27.59-1.7 1a6.74 6.74 0 01-2.31 1.32c-.86.37-1.61.69-2.45 1.07s-2 .65-2.94 1c-2.94 1.2-6.17 2-8.92 3.64a9 9 0 00-3.35 2.87c-.76 1.35-.5 2.55-.39 4a3.16 3.16 0 01-.44 2.47 2.78 2.78 0 00-.72 2.09"/><path id="path598" class="cls-1" d="M147.91 42.31a1 1 0 01-.24.34c-.69.75-1.72.26-2.55.09a1.94 1.94 0 00-1.42.15c.57-.4.54-.59 1.24-.7.52-.09 1.27.1 1.72-.25s.54-1.12 1-1.53a4 4 0 011.63-.59c1.76-.41 1.2-1.67 1.84-2.83a3.63 3.63 0 011.14-1.1c-.52.37-.53 1.72-.64 2.26a2.9 2.9 0 01-1.14 2c-1.3.72-2.05.25-2.62 2.14"/><path id="path602" class="cls-1" d="M155.52 4.31a20.57 20.57 0 01-4.11 2.32c-2.94 1.2-6.17 2-8.93 3.64s-5 4-5.38 7.2c-.14 1.24.93 3.12.52 4.07-.52 1.2-2.89 1.2-3.65 1.41-2.27.65-3.95 2.06-3.61 3.73a6.4 6.4 0 01.19 3.19c-.32 1.43-1.93 1.41-3 2.1-1.53 1-1.51 1.89-1.68 3.6s-1.29 1.67-2.24 2.72-.62 1.79-.92 3a1.88 1.88 0 01-1.13 1.62V43c1.51.2 1.52-1.69 1.74-2.44a3.18 3.18 0 012-2.56c.63-.29 1.61-.35 1.91-1.06.64-1.51-.45-2.7.81-3.95 1-1 2.65-.79 3.59-1.82 1.16-1.27.18-2.94.13-3.53a3.79 3.79 0 011.45-3.64 7.31 7.31 0 013-.48 3.51 3.51 0 001.6-.29 1.83 1.83 0 00.59-.52c.81-1 .28-2 .17-3.31a9.33 9.33 0 015.85-9.24c2.46-1 4.94-2 7.34-3.12 1.59-.75 3-1.85 4.54-2.64 1.23-.64 3.26-1.63 4.59-.67 0-2.83-4.67.1-5.38.6"/><path id="path606" class="cls-1" d="M138.94 33a1.92 1.92 0 001.11-.35 4.39 4.39 0 002-3.22c.61-3.4 4.89-6.7 8.63-8.27a18 18 0 006.86-6.92c-4.33 1.87-9.87 4.26-13.2 8.94l-.52.34c.61-.4 1.29-2.3 1.89-3a20.63 20.63 0 013.78-3.13 40.3 40.3 0 015-2.82c1.27-.59 3.27-.69 3.71-2.28 1.74 2.82-4.54 8.8-6.8 9.78-4.53 2-7.73 3.44-9 7.75a5.62 5.62 0 01-2.4 3.56 2.66 2.66 0 01-1.65.1c-.74-.32-2.17-.92-2.43-.59a1.18 1.18 0 011.32-.37 5.78 5.78 0 001.68.48"/><path id="path610" class="cls-1" d="M135.17 27.7a3.68 3.68 0 01.11-.73 2.36 2.36 0 012.19-1.76c1.08-.11 2 .73 2.95.62a2.49 2.49 0 001.36-.75 5.15 5.15 0 001.35-2.75c.61-3.39 4.68-7.12 8.53-8.4 4.51-1.51 7-5.19 6.86-6.91-4.33 1.86-9.87 4.26-13.2 8.93l-.52.35c.61-.41 1.3-2.3 1.89-3a20.69 20.69 0 013.78-3.14 38.44 38.44 0 015.06-2.82c1.26-.59 3.26-.69 3.7-2.28 1.77 2.85-1.69 7.65-6.81 9.85-4.54 1.94-7.72 3.43-9 7.74-.43 1.49-1.23 3.34-2.86 3.79-1.19.33-2.1-.9-3.34-.38-.95.4-1.14 1.33-1.29 2.27-.29 1.84-2 1.36-2.7 2.61-.06-1 .9-1.05 1.42-1.58a2.06 2.06 0 00.49-1.65"/><path id="path614" class="cls-1" d="M137.19 33.91h-.45c0 .25.6.41.8.54.41.28.71.7 1.13 1a4.07 4.07 0 001.36.65 4.13 4.13 0 003.19-.37 3.64 3.64 0 00.52-.35c7.5-5.84 7.43-12 11.85-16.93-.7.33-1.44.62-1.44.62-1.59 1.41-4.07 10.91-10.51 15.37a4.81 4.81 0 01-3 .88 4 4 0 01-1.31-.29 7.35 7.35 0 01-1.1-.67l-.5-.26a2.81 2.81 0 00-.49-.16"/><path id="path618" class="cls-1" d="M129.49 42.44c.59-1.87 2.51-.84 3.91-.87 2.09-.06 2.34-1.61 2.91-3.18.64-1.73 4.26-.82 5.94-.75 2.36.1 3 .33 4.92-1.19 2.16-1.7 1-5.59 2.3-7.64-.66 1-1.63 1.22-1.94 2.65-.22 1-.45 3.42-1.17 4.3-1.5 1.85-2.24 1.47-4.46 1.4-1.43 0-4.84-1.09-5.75.09-1.07 1.39-.74 3.24-2.75 3.56-1.41.22-3.31-1.38-4.22 1.61-.06.19.25.19.31 0"/><path id="path622" class="cls-1" d="M135.79 42.39a3.65 3.65 0 01-2.26-.18 9.19 9.19 0 01-1-.46c-.31-.16-.69-.24-1-.39.08-.16.5 0 .64 0a6 6 0 01.67.17 5.17 5.17 0 002.16.38c2.12-.49 1.41-3.12 3.18-3.84 1.31-.53 3 .07 4.26.49 8.54 2.79 12.06-5 8.72-9.52a4.32 4.32 0 01-.3-3.08l1.29-2.16c-1.18 2.84-.61 4.64-.26 5.23a7.13 7.13 0 01-9.4 10.09c-1.28-.65-3.23-1.25-4.44-.11s-.24 2.9-2.26 3.4"/><path id="path626" class="cls-1" d="M139.28 51.3c.38 1 1.67.17 2.4.3.44.08.71.51 1.11.53.57 0 1.05-.63 1.63-.68 1-.1 1.56.85 2.46 1 1.11.2 1.53-1 2.13-1.73 1.49-1.73 2.74-.46 4.4-1.45 1.19-.71 1.07-2.63 1.37-3.83a3.31 3.31 0 012.56-2.64 30 30 0 013.91-.19 4.64 4.64 0 002-.52c1-.63 1.12-1.83 1.2-3.16a3.77 3.77 0 01-.33 2.92 4.59 4.59 0 01-3.6 1.95c-2 .22-3.68-.31-4.92 1.74-.72 1.19-.14 2.92-1 4s-2.52.55-3.77 1.2c-.82.43-1.07 1.06-1.56 1.81-.59.92-1.49 1.53-2.58.86a4.52 4.52 0 00-2.24-.94c-.69 0-1.36.53-2 .34-.29-.08-.53-.31-.82-.39a13.52 13.52 0 01-2-.26c-.52-.22-.17-.45-.33-.88"/><path id="path630" class="cls-1" d="M162.43 4.57l-.28.3c-.29-.26-.1-.7.08-1 1.09-1.43 2.91-.66 4.35-.51 1.24.12.81-.89 1.27-1.47s1.12-.22 1.42.21-.34 1.81.11 1.87c.11.5-.49.58-.75.26s.23-.59.32-.92 0-1-.41-1-.44.65-.67.93a1.76 1.76 0 01-1.31.55c-.74 0-1.36-.4-2.08-.42a2.72 2.72 0 00-2 1.14"/><path id="path634" class="cls-1" d="M162 2.91a3 3 0 011.22-1.47 3 3 0 012.73.1c.32.17 1.58 1.23 1.33 1.71-.75.15-.79-.81-1.25-1.13a2.5 2.5 0 00-2.27.17 3.63 3.63 0 00-1 .91 9.08 9.08 0 00-.6 1.21H162a1.65 1.65 0 010-1.5"/><path id="path638" class="cls-1" d="M153.2 3.91a3.42 3.42 0 002.1-1.75 4.05 4.05 0 011.25-1.08 1.12 1.12 0 011-.16c.26.13.43.51.73.55.87.14 1.39-1 2.32-.65s.77 1.47 1.06 2.22a5.73 5.73 0 00.45.75 3.58 3.58 0 00-.43-3 1.78 1.78 0 00-2.46-.5c-.93.53-2-.2-2.91.3a7.29 7.29 0 00-1.56 1.72 1.83 1.83 0 01-2.12.73 1.7 1.7 0 00-2 1.37.5.5 0 000 .12c-.14.72-.12 2-.94 2.34.85.41 1.18-.53 1.4-1.16a2.54 2.54 0 012-1.75"/><path id="path642" class="cls-1" d="M128.66 38.82c1.53 0 1.63-1.71 3.33-2s.75-3 4.6-3a3.82 3.82 0 01.94.24 1.16 1.16 0 01.69.4 1.81 1.81 0 01.25.3c.09.15.05.18 0 .34a3.76 3.76 0 00-3.26-.4 3.08 3.08 0 00-1.63 2c-.44 1.61-1.24 1-2.06 1.4-1.06.5-1.64 1.5-2.9.74"/><path id="path646" class="cls-1" d="M116.54 45.91h-1.23c-6.72-.39-8.83-2.59-13.9-.18l-.41.18c-5 2.65-3.24 7.1-6.49 9.86-2.92 2.48-8.31 3.86-10.79 5.84a7.32 7.32 0 00-2.36 4 10 10 0 001.38 7.26c1.21 2-.8 3.17-.34 5.14.42-1.48 1.44-2.3 1.72-3.65a4.38 4.38 0 00-.84-3.2 9 9 0 01-1-5.13c.31-1.86 2.42-3 4.27-3.77 4.92-1.93 9.81-5 11-9.92 1.84-7.49 9.13-7.28 14.14-6.42a17.41 17.41 0 00-9.14 2.49c-2.92 1.89-3.94 6.23-5 7.45-5.84 6.43-13.18 6.88-12.79 18.86a18.2 18.2 0 01-1.18 3.37 6.54 6.54 0 00-.58 2.53 2.38 2.38 0 001.1 2 4.16 4.16 0 01-.65-1.81 5.32 5.32 0 01.55-1.9c.35-1 .74-1.9 1-2.88a24.54 24.54 0 00.84-4.83c.61-7.14 5.41-9 11.69-12.86a6.29 6.29 0 002.66-3.68 10 10 0 00.52-2.24 4.21 4.21 0 011-2.55c.15-.16 1.26-1 1.45-1.13 1.82-1.28 4.15-1.65 6.39-2.07a20.91 20.91 0 015-.15l.42.09a25.31 25.31 0 00-8.1 1.74 10.73 10.73 0 00-1.34.6l-1.08.64a5.81 5.81 0 00-2.76 4.41c-.33 2.15-.81 4.19-3 5.19-14.18 6.63-10.46 12-12.43 16.38-1.1 2.6-2.03 4.7-1.26 7.43.45 1.66 3.66 5.79 10.89 6.72-3.43-1.66-11.49-3.28-10.2-10.14.44-2.35 2.39-6.14 2.66-9.06a6.41 6.41 0 011.4-2.82c2.58-3.34 7.57-4.25 10.39-7.23a10.27 10.27 0 003.13-5.85c.17-1 .46-3.65 2.76-5a15.07 15.07 0 014.15-1.55c1.24-.28 2.62-.4 4-.57-.29.07-.57.16-.85.25q-.78.2-1.53.45-1.5.54-3 1.2c-2 .92-3.8 2.31-4 3.85-1.44 8.7-8.52 10.49-13.46 16.12a6.56 6.56 0 00-1.24 2.18 10.48 10.48 0 01-1 2.56c-3.22 5.22-2.69 14.28 6.75 13.21-4.23-.6-8.34-3.64-8-7.55.53-2.62 2.31-5 3.24-7.09s1.26-3.18 2.77-4.23c6-4.11 11.22-7.38 11.31-13.24a6.18 6.18 0 013.42-5 25.37 25.37 0 015.12-1.95 45.83 45.83 0 00-5.81 3.52c-1.15.86-2.41 3.79-2.53 5.89-.37 6.47-4.37 8.62-10.47 12.44-3 1.86-4.83 6-5.14 9a5.23 5.23 0 001.62 4.8 6.89 6.89 0 002.83 1.29c1.82.47 2.26.61 3.35 2a5.79 5.79 0 003.33 2.1c-1.49-1.43-1.35-3.25-2.73-4.56-1.13-1.07-3-.87-4.34-1.64a4.39 4.39 0 01-2-3.41c-.43-3.36 1.42-6.76 4.28-9a5.51 5.51 0 011.29-.57 17.61 17.61 0 006.44-4.21 10.87 10.87 0 002.42-4.35 11.89 11.89 0 00.42-2.91 14.76 14.76 0 01.41-3.43c.65-2.58 2.74-3.91 4-4.8a10.32 10.32 0 012.85-1.29l2.17-.7s1.64-1.83 1.78-2.1-1-.47-1.31-.41"/><path id="path650" class="cls-1" d="M157.31 79.27s.2-1.75.18-1.76a77.11 77.11 0 01-14.9-2.74c-.15 0-.19-4-3.28-6.12-.4-.28.28 1.14.48 2.68a33.07 33.07 0 01.21 4.77c0 5.41-2.56 15.43-2.5 15.74.29 1.72.43 3.17 3.28 5.07 4.22 2.87 12.12 10.87 12.22 11.52-8.71-6.65-14.94-10.43-19.13-11.54-1.27-.34-2.6-15.7-9.71-21.13-3.5-2.67-7.36-5-8.91-8-4.41-8.63-1.7-19.24 9.64-23.71 9-3.52 21.93.48 26.48 2.07.13.05.13-.94-.08-1-3.62-1.52-17.54-5.93-28.38-2-12.17 4.35-15.48 16.11-9 26.64 4.2 6.86 14 7.73 15.17 20 .25 2.6.45 4.38.5 5.59a3.08 3.08 0 002.89 3.11c3.58.59 21.83 10.12 23.15 15.38a2.51 2.51 0 01-.27 1.5h6.34c0-.55-1.39-2.59-2-3.56-1.51-2.34-12.25-10.3-13.25-11.25-6.42-6-6.93-10.58-6.9-11.34 0-.38 1.76-11.63 1.92-12.7v-.07c.18.06-.18-3 0-2.91s.79 3.19.93 3.23a75.42 75.42 0 0014.91 2.57"/><path id="path654" class="cls-1" d="M160 79.49l1.16-1.77s6.25.16 9.25-.82c0 0 6.16 7.09 8.54 9.2 1.62 1.43 6.06 5.62 6.79 6.15a3.59 3.59 0 011.67 2.35c.09.85-.54 1.54-.93 2.25s-2.21 4.58-2.69 5.67c.57 0 6.52-7.42 5.52-9.22-1.4-2.48-2.8-5-4.3-7.37-1-1.6-2-3.18-3.15-4.69-.27-.37 1.16-1.27 2.18-2.7s1.7-3.46 1.82-3.31a8 8 0 01.14 4.08c-.25.65-1.44 2-1.36 2.11 2 3.23 4.17 8.12 4.9 9.51.53 1 1.63 2 1.7 3.34.1 1.78-4.37 7-5.51 8.16-1.63 1.72-2.6 3.72-4.09 5.13-.76.72-5.81 3.6-5.81 3.6.15-.51-.23-5.47-.08-6.19 0-.07 4.86-.62 5.23-1 1.54-1.4 2.54-4 3.56-5.76a8.5 8.5 0 001.46-3.1c.13-1.27-1.26-2.19-2.17-2.77-2.38-1.5-7-5.83-8.35-6.92s-5.31-5-5.74-5.93c-3.34.26-9.83 0-9.83 0"/><path id="path658" class="cls-1" d="M108.44 80.83"/><path id="path662" class="cls-1" d="M113 83.25c-1.8-.14-2.35 2-2.53 2.29s-.27 4.62-.55 7.88a22.6 22.6 0 01-1 4.74c.75-5.2-.62-11.38-1.28-13.69-.43-1.47.46-3 1-3.14 1.14.09 6-3.92 9-7.61 0 0 4.18 1.44 5.54 3l3.44 3.93c-3.69 3.69-6.81 3.19-13.65 2.65m14.14-1.91c-2-2.27-10.94-9.35-10.94-9.35a12.78 12.78 0 01-1.15 2.2c-2.71 3.62-6.49 5.84-6.87 5.77a3.54 3.54 0 00-2.1 1.28 3.26 3.26 0 00-.29 3c1.13 2.73 1.78 8.55 1.68 11s.19 4.72-.76 7.08c-1.14 2.79-6.27 2.7-6.66 2.79l2.7 5.71c.42-.3 3-2.14 3.43-3.1 1-2.31 1.08-2.3 1.74-4.06a79.83 79.83 0 002.84-7.8 39.32 39.32 0 00.69-5.73 16.78 16.78 0 01.35-2.63 2.91 2.91 0 011.06-1 14.67 14.67 0 013.68-.4c.45 0 6.4.49 9.58-2.31 0 0 1.74-1.62 1-2.41"/><path id="path666" class="cls-1" d="M197.28 109.91a2.61 2.61 0 11-2.58 2.64 2.57 2.57 0 012.54-2.6zm0 .41a2.2 2.2 0 102.2 2.2 2.2 2.2 0 00-2.2-2.2zm-.48 3.7h-.46v-2.89a5.54 5.54 0 01.81-.07 1.6 1.6 0 01.91.22.75.75 0 01-.31 1.3c.26 0 .43.28.49.71a2.74 2.74 0 00.18.71h-.48a2 2 0 01-.2-.73.54.54 0 00-.56-.51h-.38zm0-1.6h.33c.38 0 .71-.14.71-.5s-.19-.51-.71-.51h-.33z"/><path id="path670" class="cls-1" d="M157 31.5l-.22.79v-2.56a3.26 3.26 0 01.22 1.77m8-6.34a11.06 11.06 0 00-2.07 1.59 5.36 5.36 0 00-.51 1.54c-.22 1.29-.18 1.75-.88 2.45a42 42 0 01-4.43 2.83 9.56 9.56 0 00.35-1.07l.24-.85a3.59 3.59 0 00-.48-2.78 2.85 2.85 0 01-.31-1.15c0-.39.1-.79.12-1.17 0-.7-.32-1.37-.32-2 0 .42-.39.87-.41 1.33 0 1-.89 6.75 0 9.12.18.49 4.36-2.94 5.44-3.83 1.34-1.11 1.08-2.27 1.55-3.78a8.5 8.5 0 011.88-2 17.69 17.69 0 011.94-.87 7.49 7.49 0 00-2.12.62"/><path id="path674" class="cls-1" d="M164.68 7.25c-.45.17-1.29.87-1.32 1.13a2.21 2.21 0 00.23 1.19c.24.47.27.4.59.93.08-.23-.24-.67-.28-.82a3.9 3.9 0 01-.14-.59c0-.81.83-.47.74-1.49"/><path id="path678" class="cls-1" d="M164.77 28.7c-.43.94-.17 1.56-.85 2.45-1.78 2.3-8.39 8-8.71 7.67-1.59-1.63-2.14-6.65-2.15-10.29a25.42 25.42 0 01.73-7c.59-1.75 1.49-2.77 2.76-3.1a3.74 3.74 0 011-.11c1.09 0 3.53.75 4 2a4.05 4.05 0 00-1.79-2 23.06 23.06 0 00-.59-5.67s0 .15-.44.07-.58-.66-.58-.66a55.61 55.61 0 011 6 4.36 4.36 0 00-2.78-.29c-1.52.4-2.62 1.61-3.29 3.6a29.68 29.68 0 00-.81 8.13c0 3.26.55 8.77 2.48 10.71.94.93 9.1-7.74 9.77-9.35a24.71 24.71 0 011.1-2.73c.54-1 1-2.55 1.5-3.53a21.55 21.55 0 00-2.34 4.16"/><path id="path682" class="cls-1" d="M166.7 44.06c-.9 3.13-.77 2.62-2.65 3.79-2.2 1.37-2.08 2.31-1.74 4.22.31 1.73-.74 2.18-2.25 1.87-1.79-.36-2.19 2-3.81 1.79-.82-.1-1.45.49-2.23.9-.39.21-1.31.54-1.68 0 1 .14 1.21-.74 1.86-1.19s1.67-.31 2.48-.71c.6-.31.8-1 1.43-1.3s1.55.3 2.27.06c1.09-.37.86-2 .63-2.83-.58-2.17 2.12-3 2.84-3.61a5.8 5.8 0 001.92-2.84c.75-2.63-.07-4.23 0-6a3.44 3.44 0 01.5-2c.47-.73 1.37-1.1 2-1.69a12.54 12.54 0 012-1.39c-.7.87-2.11 1.74-2.78 2.43a3.37 3.37 0 00-1.11 3c.24 1.73.8 3.75.31 5.45"/><path id="path686" class="cls-1" d="M178.07 20.59c-.8-.62-1.69-.82-1.21-2.14a3.56 3.56 0 00.47-2.17 2.25 2.25 0 00-1-1.46 4.14 4.14 0 00-1.85-.51c-.71-.07-1.42-.07-2.13-.16a6 6 0 01-1.1-.22 1.28 1.28 0 01-.75-.62c-.33-.65.54-.84.93-1.14a2.4 2.4 0 00.73-.88 1.7 1.7 0 00-.6-2.33l-.09-.05a.46.46 0 01-.31-.57.44.44 0 01.14-.22 1.8 1.8 0 00-1.5-3c-1.09 0-1.33.71-2.59.58-.67-.07-1.08-.33-1.33-1.28a1.24 1.24 0 00-1.44-1 1.3 1.3 0 00-.44.17 1.89 1.89 0 00-.76 1c-.06.13-.34.5-.05.55s.22-.32.32-.45a1 1 0 01.3-.23.74.74 0 011 .18.74.74 0 01.11.24 8.93 8.93 0 001.41 3.7c.3.46.68 1.07.26 1.49s-.82.34-.86.91a.88.88 0 00.72 1h.23c.74-.1.67-1.2-.11-1.06.26 0 .41.39.2.54-.41.29-.77-.23-.51-.58a5.43 5.43 0 01.81-.62c.87-.69.32-1.53-.23-2.27a5.63 5.63 0 01-1.4-2.86c.94 2 3.17.59 4.4.37s1.72 1.44.64 2.16-.48 1.34.7 1.67a1.24 1.24 0 01.5.31 1 1 0 010 1.23 1.93 1.93 0 01-.54.63c-.51.44-1.29 1-1 1.79.25.57 1 .83 1.52 1a7.59 7.59 0 00.78.22 10.72 10.72 0 012.72.78c.92.49 1.52 1.05 1.25 2.72-.15.88-1 1.3-.41 2.15.38.58 1.59.69 1.93 1.43.62 1.34-.35 1.76-1.18 2.33-.6.41-1.06.69-1.22 1.39-.22 1 .75 1.73.15 2.77a3.25 3.25 0 01-1.84 1.19c-.9.31-1 .82-1.77 1.37a23.85 23.85 0 00-2.45 2.26c-1.64 1.58-4.25.59-5.08 2.25-1 2 .7 5.18.32 7.19-.42 2.21-3 2.44-4.83 2.59-2.2.19-3.7 1.08-3 3.39a7.82 7.82 0 01.67 2.76c0 1.65-2.1 1-3.13 1.44-1.34.53-1.9 2.37-4.34 2.41a7.54 7.54 0 00-2.76.14c-1.06.39-2 1.12-3.21.24-.37-.27-.39-.91-.88-1.06s-.84.13-1.26 0-.52-.44-.85-.51-.84.14-.89-.29a.62.62 0 00.49.57c.21 0 .43-.05.57.16s.29.55.6.61.71-.06 1 .08c.69.29 1.2 1.23 1.88 1.53a4.54 4.54 0 003-.24 6.69 6.69 0 012.6 0c1.63.16 2.54-.85 3.45-2 1.28-1.57 3.31-.71 4.33-1.83s0-3-.19-3.54c-.6-2 .15-3.39 4-3.7a4.2 4.2 0 002.89-1.23c1.56-1.84-.14-5.2 0-7.14s2-1.45 3.3-2.33a18.63 18.63 0 002.9-2.92c.1-.11.2-.22.31-.32a17.28 17.28 0 013.26-2 2.83 2.83 0 001.6-2c.1-1-.3-1.85.63-2.53.73-.54 1.82-1 2.08-2s-.22-1.54-1-2.17"/><path id="path690" class="cls-1" d="M165.5 6.12a2.42 2.42 0 003.11 1.44 2.25 2.25 0 00.59-.32c2-1.43 2.16-.39 1.64.16l.48-.08c.24-1-.27-1.56-1.93-.72-1.15.57-2.86.24-3.95-1.88z"/><path id="path694" class="cls-1" d="M165.34 11.65c-.42 2.23.91 3.51 3.32 4.19.92.25 3.14.57 3.81 1.24 1 1-.48 2.08.05 3.31.34.79 1.24.93 1.5 1.79.39 1.3-.38 1.82-.85 2.82a2.43 2.43 0 00.38 2.47c.44.73.4 2.42-.59 2.87.65-1.13 0-1.9-.52-2.9-.65-1.3-.29-2.12.48-3.3a2 2 0 000-2.41c-.39-.61-1.07-.76-1.18-1.52s.39-1 .59-1.69c.39-1.38-3.37-2-4.3-2.24 2 1.06 1.07 4.18.39 5.38a14.69 14.69 0 01-1.13 1.66c-.33.47-.69 1.05-1 1.47l-.74.28a18 18 0 011.68-2.79 6.79 6.79 0 001-4.85c-.31-1.12-1.56-1.38-2.31-2.12a4.07 4.07 0 01-.28-4.24"/><path id="path698" class="cls-1" d="M165.61 27.5a3.45 3.45 0 01.71 1.75c0 1-.84 1.77-.8 2.73 0 .77.53 1.61 0 2.32-.31.48-.84.53-.85 1.19.35-.52 1.36-.41 1.81-.93.77-.88 0-1.53-.17-2.39-.26-1.09.55-1.79.7-2.82s-.78-1.52-1.12-2.34z"/><path id="path702" class="cls-1" d="M169.84 26.53a1.22 1.22 0 00-.06-.26 2.54 2.54 0 00-.67-.86 2.41 2.41 0 01-.85-2.18 6.64 6.64 0 01.84-2 3.59 3.59 0 00.37-2.45 4.8 4.8 0 00-.79-1.39c-.34-.45-.78-.63-.57-1.23a5.84 5.84 0 011.59 1.38 3.72 3.72 0 01.2 3.43c-.39.94-1 1.76-.72 2.83.2.76.86 1.19 1.29 1.82a1.32 1.32 0 01.21 1.28c-.34.86-.91 1.29-.29 2.16s1.35 1 1.08 2.23a1.74 1.74 0 01-.41 1.05 3.53 3.53 0 01-1 .27c.63-1 .82-1.74 0-2.62a2.13 2.13 0 01-.75-1.76c.08-.64.61-1.05.52-1.73"/><path id="path706" class="cls-1" d="M84.58 125.2c14.18 0 25.32 9 25.32 23.63 0 14.13-10.5 25.8-25.7 25.8-17.26 0-24.88-13.44-24.88-24.78 0-10.22 7.86-24.65 25.26-24.65m1.33 46.6c5.67 0 16.78-3.6 16.78-21.19 0-13.6-8.59-22.84-18.55-22.84-10.53 0-17.78 7-17.8 20.31 0 13.68 8.22 23.72 19.57 23.72"/><path id="path710" class="cls-1" d="M126.07 155.42v-11.08c0-9.85-.15-18.1-.15-18.1.75 0 8.14-.19 11.92-.19 6.25 0 18.32-.57 25.81 7.18a22.5 22.5 0 016.12 16A25.75 25.75 0 01163 167c-2.71 2.84-8.92 7.24-19.64 7.24-5.42 0-17.07-.75-17.71-.75 0 0 .46-12 .46-18.1m6.52-4.28c0 6.68.07 12.48.12 13.67a11 11 0 00.94 4.38c.82 1.2 2.42 2.51 9.87 2.51 5.87 0 10.53-1.71 14.24-5.43 3.29-3.21 5-9.26 5-15.07a22.59 22.59 0 00-6-15.88c-5.94-6.25-12.37-6.71-19.88-6.71a12.08 12.08 0 00-3.49.45 1.14 1.14 0 00-.74 1.25c-.07 2.15-.07 8.16-.07 13z"/><path id="path714" class="cls-1" d="M185.94 155.4v-11.09c0-9.84-.51-18.28-.51-18.28.89 0 2.48.18 3.78.19.95 0 2.73-.25 3.49-.19 0 0-.23 8.44-.23 18.28v11.09c0 6.06.7 18.28.7 18.28-1.36 0-2.12-.2-4-.18-1.66 0-2.67.27-3.8.18 0 0 .53-12.22.53-18.28"/><path id="path718" class="cls-1" d="M37.38 157.62v-7.57c1.07 0 2.07.17 3.26.19 1 0 2.3-.19 3.37-.19v4.67c-.13 2-.13 3.91-.13 6.56v7.06c0 2.83-.06 3-.82 3.4-4 2.14-10.31 2.82-14 2.84-6 0-15.27-1-21.58-7.07A25 25 0 010 149.91c0-10.1 5-17.22 10.59-20.74s12.71-4 17.56-4a57.94 57.94 0 0110 1.08 30.23 30.23 0 005.11.62c.63.07.76.32.76.57a33.47 33.47 0 00-.45 6.78c0 .68-.65.41-1.46-.37 0 0-.84-.63-1.44-1.18-2.13-1.91-6.42-4.86-14.55-4.86-4 0-8.24.37-12.73 3.86-3.73 2.84-6.39 8.61-6.39 16a25.74 25.74 0 006.68 17.47c5 4.85 10 6.33 15.88 6.49a15.25 15.25 0 006.58-1.07 2.34 2.34 0 001.26-2.21z"/><path id="path722" class="cls-1" d="M245.9 126c.41 0 2 .18 2.73.18.38 0 .47-.06 2.3-.06 0 0-19.57 46-19.93 46.7-.61 1.22-1.07 1.71-1.47 1.71-.77 0-1.19-.88-2.39-3.9L211.48 132l-2.42-6c1.18 0 3.26.19 4 .19s3.19-.18 4-.19c0 0 1.62 5.24 2.57 7.7l11.57 30.41c1.57-3.62 12.28-30.53 13.07-33.13.32-.94 1.65-5 1.65-5"/><path id="path726" class="cls-1" d="M285.73 171l-5.49-14.36a.57.57 0 00-.57-.38h-13.56a.65.65 0 00-.62.51l-3.7 10-2.45 6.94s-1.27-.06-2-.06-1.85.12-2.59.06l2.74-6.94 14.85-39.07c.76-2.08 1.3-2.46 1.67-2.46s1 .45 1.72 2.41c.95 2.4 10.94 28.2 14.74 37.8l3.11 8.26c-1.22 0-2.34-.17-3.49-.17s-2 .08-3.47 0zm-7-17.57c.31 0 .31-.19.25-.44l-5.85-17c-.25-.5-.43-.5-.71 0l-5.66 17c-.12.31 0 .44.19.44z"/><path id="path730" class="cls-1" d="M196 186.05a1.39 1.39 0 01.41 1.12 2 2 0 01-.47 1.3 1.48 1.48 0 01-1.17.56 1.62 1.62 0 01-1.14-.35 1.33 1.33 0 01-.41-1.1 2.06 2.06 0 01.48-1.32 1.5 1.5 0 011.15-.55 1.81 1.81 0 011.15.34"/><path id="path734" class="cls-1" d="M97.12 192.91c-.25-4.07-1.51-6.65-4.71-6.65s-6.85 3.45-8.79 8.48a17.84 17.84 0 00-1.25 5.9c-.09 4.48 2.13 6.5 5.24 6.5 2.9 0 5.76-2.33 7.18-4.13.61-.76 1.17-1.52 1.67-2.28l.44.3a16 16 0 01-7.44 7c-4.47 2-8.47-.2-9.76-3.69-.81-2.22-.61-5.64.73-8.81a17.47 17.47 0 013.32-5.16 16.52 16.52 0 014.89-3.65 12.69 12.69 0 018.15-1.09 10 10 0 012.07.74c-.27 1.09-1.2 5.43-1.4 6.51z"/><path id="path738" class="cls-1" d="M127.37 200.43a13.27 13.27 0 01-2.7 4.6c-1.42 1.63-4.27 4.45-7.8 3.28-1.37-.59-1.48-1.79-1.48-2.89 0-3.16 2.88-6.88 5.45-8.76a8.76 8.76 0 014-1.7 3.08 3.08 0 011.44.23c.9.38 2.19 1.8 1.09 5.24M120.1 199a16.89 16.89 0 00-2.1 6.84c0 2.37 2.39 2.16 3.36 1.38 1.86-1.53 4.26-7.78 3.6-9.95a1.74 1.74 0 00-1.79-1.19c-1.19.1-2 1-3.11 2.92"/><path id="path742" class="cls-1" d="M152.19 200.43a13.27 13.27 0 01-2.7 4.6c-1.41 1.63-4.27 4.45-7.8 3.28-1.37-.59-1.47-1.79-1.47-2.89 0-3.16 2.87-6.88 5.44-8.76a8.76 8.76 0 014-1.7 3.08 3.08 0 011.44.23c.9.38 2.19 1.8 1.09 5.24m-7.26-1.43a16.7 16.7 0 00-2.07 6.84c0 2.37 2.39 2.16 3.37 1.38 1.85-1.53 4.25-7.78 3.59-9.95a1.74 1.74 0 00-1.79-1.19c-1.19.1-2 1-3.1 2.92"/><path id="path746" class="cls-1" d="M134.26 208.2a8.81 8.81 0 003.46-2.41c0-.13-.05-.2-.19-.21-1.89 1.45-2.93 1.71-4.11 1.42-1-.24-1.61-.92-1.59-2.44 0-3.55 2.66-9.6 5.32-8.19a1.33 1.33 0 01.62.81 1.16 1.16 0 00-.29 1.62l.12.14c.76.58 2.45.52 2.45-1.76s-2-2.63-4.11-1.77a10.64 10.64 0 00-3.75 2.75 17.61 17.61 0 00-2.39 3.54 7.36 7.36 0 00-.8 3.21 4 4 0 00.9 2.61c1.15 1.35 3 1.16 4.4.69"/><path id="path750" class="cls-1" d="M210.18 195.45h2.51l-1.86 4.93s1.75-3.59 3.76-4.75a2.6 2.6 0 013.32 0 2.34 2.34 0 010 3.31 1.49 1.49 0 01-.27.23 1.27 1.27 0 01-1.77-.3 1.36 1.36 0 01-.23-.7 1.7 1.7 0 01.39-1.12 1 1 0 00-.56-.28c-2-.17-3.95 3.15-4.54 4.51-1.18 2.69-2.46 6.66-2.55 6.95H206z"/><path id="path754" class="cls-1" d="M114.13 205.56c-.38.36-3.64 2.73-3.93.77a4.59 4.59 0 01.37-2c.25-.85 1.33-4.37 1.38-4.55.22-.71.6-2.82-.33-3.85-3-3.38-8.26 2.91-9.06 5.06 1-2.78 5.32-14.24 6.33-16.93h-2.6l-8.51 24.13h2.31q.73-2.41 1.71-4.75a16.92 16.92 0 014.22-5.83 2.54 2.54 0 013.33-.43c.7 1.07.09 2.39-1.6 8.11-.31 1-.21 2.36.38 2.83 1.37 1.09 3.37 0 4.43-.79a15.61 15.61 0 001.77-1.58c0-.13-.11-.3-.2-.2"/><path id="path758" class="cls-1" d="M198.27 201.79a18.52 18.52 0 002.08-.5c1.56-.48 5.47-2.26 5.47-4.68 0-1.08-.54-1.68-1.62-1.62-2.23.12-5.22 2.44-7 5a10 10 0 00-2.23 5.62 3.06 3.06 0 003.13 3 6.62 6.62 0 003.79-1.37 12.71 12.71 0 001.75-1.45s-.08-.24-.19-.22a4.5 4.5 0 00-.6.44c-1 .86-3.53 1.77-4.61.36-1-1.21-.51-2.94.08-4.51m.68-2a9.18 9.18 0 012-2.9 2.12 2.12 0 011.33-.57c1.22 0 1.34 1.11.49 2.19a7.93 7.93 0 01-4.29 2.6c.11-.33.27-.77.5-1.32"/><path id="path762" class="cls-1" d="M177.63 205.23c-.36 1-.3 2.33.27 2.82 1 .9 2.86.48 4.51-.76.68-.51 1.68-1.35 1.68-1.6a.19.19 0 00-.15-.21h-.05s-1.54 1.73-3 1.69c-.75 0-.95-.39-.95-1.18a7.35 7.35 0 01.39-1.73s2.53-7.56 2.66-8.09h4.37l.22-.81h-4.32l1.88-5.45-2.63.64-4.88 14.68"/><path id="path766" class="cls-1" d="M176 205.48s-1.55 1.73-3 1.69c-.73 0-1-.39-.93-1.19a25.1 25.1 0 011.47-4.85c1-2.83 2.23-5.78 2.32-5.94h-2.24a9.41 9.41 0 01-.48 1.07c-.58-1.88-2.34-1.25-3.27-.82a17.93 17.93 0 00-6.23 5.31 8 8 0 00-1.92 5.36c0 .69.34 3.18 3.6 2s5.08-4.47 5.4-5l.06.06c-.09.2-.22.48-.41.82a8.75 8.75 0 00-.48 1.15 2.8 2.8 0 00.31 2.83c2 1.75 6-2 6-2.37 0-.14-.06-.21-.19-.21m-4.92-4a16.33 16.33 0 01-2.91 4.13 5.11 5.11 0 01-2.36 1.28c-1.82 0-2-2.13-.28-5.62.34-.7.75-1.35 1.14-2 1.18-1.88 2.72-3.46 4.25-3 1.93.58 1.56 2.07.16 5.17"/><path id="path770" class="cls-1" d="M187.16 205.3c-.3 1-.3 2.27.38 2.83a2.38 2.38 0 001.54.49c1.88.06 4.66-2.55 4.66-2.86 0-.14-.06-.2-.19-.2s-1.55 1.72-3 1.69c-.75 0-1-.39-1-1.19a7.38 7.38 0 01.39-1.72s3.3-8.59 3.54-9.27h-2.58c-.56 1.67-3.74 10.23-3.74 10.23"/><path id="path774" class="cls-1" d="M154.26 204.15l-.26 1.15a3 3 0 00.31 2.83 2 2 0 001.47.5c2.18 0 4.67-2.72 4.67-2.87a.19.19 0 00-.18-.2s-1.55 1.72-3 1.69c-.74 0-1-.4-1-1.1a9.56 9.56 0 01.44-1.81l.58-2c.31-.94 6.26-17.91 6.39-18.29h-2.54c-.57 1.8-6.8 20.09-6.8 20.09"/></svg>