<svg version="1.1" id="Layer_1" xmlns="http://www.w3.org/2000/svg" x="0" y="0" viewBox="0 0 400 115.6" width="400" height="115.6" xml:space="preserve"><style>.st0{fill:#fff}</style><path class="st0" d="M393.3 5h.7c.7 0 1.4-.4 1.4-1.1 0-.4-.4-1.1-1.4-1.1h-.7V5zm0 3.2h-1.1V2.5h1.8c1.1 0 1.4.4 1.8.4.4.4.4.7.4 1.1 0 .7-.4 1.1-1.1 1.4.4 0 .7.7 1.1 1.4 0 .7.4 1.1.4 1.4h-1.1s-.4-.7-.4-1.4-.4-1.1-1.4-1.1h-.7v2.5h.3zm.7-7.5c-2.5 0-4.3 1.8-4.3 4.3s1.8 4.3 4.3 4.3c2.1 0 4.3-1.8 4.3-4.3S396.5.7 394 .7zm0-.7c2.8 0 5 2.1 5 5s-2.1 5.3-5.3 5.3c-2.8 0-5.3-2.1-5.3-5.3.6-2.9 2.7-5 5.6-5zM113.5 96.5h.7c2.1 0 3.2-.4 4.6-1.1 1.8-1.4 3.2-3.9 3.2-6.4 0-3.2-1.8-5-4.6-5-1.1 0-1.8.4-2.5 1.4 0 .4-.4.7-.7 2.1-.4.7-.4 1.4-.7 1.8l-2.5 7.4h2.5v-.2zm-6.8 13.4h3.5c3.5 0 5.3-.4 6.7-1.8 1.1-1.1 1.8-3.5 1.8-5.7 0-2.5-1.1-3.9-2.8-4.6-1.1-.4-2.1-.4-3.9-.4h-1.4l-3.9 12.5zm7.8-26.9h1.4c3.2 0 4.3 0 5.7.7 2.5 1.1 3.9 3.2 3.9 6 0 3.9-2.5 6.4-7.4 7.4h-.4c3.2 1.1 5.3 3.9 5.3 6.7 0 3.2-2.1 6-6 6.4-1.1 0-2.1.4-4.3.4H100l.4-.7c2.1-.4 2.8-.7 3.9-3.5l.4-.7v-.4l5.3-17.4v-.4l.4-.7c.4-.7.4-1.4.4-1.8 0-1.1-1.1-1.4-2.8-1.4l.4-.7c-.2.1 6.1.1 6.1.1zM134 98.6c2.1-2.1 3.2-3.9 3.2-5.3 0-.7-.4-1.4-1.1-1.4-1.1 0-2.1 1.1-3.5 3.2-1.1 2.1-1.8 3.9-2.5 6.4 1.1-.8 2.9-1.9 3.9-2.9m-4.9 12.4c-2.1 0-3.5-1.8-3.5-4.3 0-3.5 2.1-8.2 5.7-11.7 2.1-2.5 3.9-3.5 5.7-3.5 1.8 0 2.8 1.1 2.8 2.5 0 1.1-.4 2.1-1.4 3.2-1.1 1.4-3.5 3.2-6.4 5-1.1.7-1.4.7-1.8 1.1-.7 1.4-1.1 3.9-1.1 5s.7 2.1 1.8 2.1c1.4 0 3.2-1.4 5.3-4.6l.4-.4.7.4c-3.3 3.1-6.1 5.2-8.2 5.2m13.5-3.9s-.4 1.1-.4 1.4c0 0 0 .4.4.4.7 0 2.1-1.8 4.3-5l.4-.4.7.4v.4c-2.8 4.3-5.3 6.7-7.4 6.7-.7 0-1.4-.7-1.4-1.4s.4-1.4.7-2.5l1.4-3.2 7.4-18.1c.4-1.4.7-1.8.7-1.8 0-.4-.4-.7-1.8-.7h-.4l.4-.7h6c-.1 0-11 24.5-11 24.5zm15.9-15.3c-1.1 0-1.8.7-2.8 1.8-1.1 1.8-2.1 4.6-2.1 6.4 0 1.1.7 1.8 1.4 1.8s1.8-.7 2.8-2.1c1.4-1.8 2.5-4.6 2.5-6-.4-1.1-.7-1.9-1.8-1.9m-6.4 17.4c-2.5 1.1-3.2 1.8-3.2 2.8 0 1.8 1.8 2.8 5.3 2.8 1.4 0 3.2-.4 4.6-.7 1.1-.4 1.8-1.1 1.8-1.8s-.7-1.4-2.5-2.1l-2.1-.7-2.5-.7h-.4c.1.1-.3.1-1 .4M162.4 95c0 4.3-3.2 7.8-7.1 7.8-.7 0-.7 0-1.1-.4h-.4c-1.1.7-1.8 1.4-1.8 1.8 0 .7.4.7 2.5 1.4l2.1.7c2.8.7 3.9 1.4 4.6 2.5.4.7.7 1.4.7 2.1 0 2.8-3.2 4.6-7.8 4.6s-7.4-1.4-7.4-3.2c0-1.1 1.1-2.5 3.2-3.5l1.4-.7s.4 0 .4-.4c-1.4-.7-1.8-1.1-1.8-2.1 0-1.4 1.1-2.1 3.2-3.5-1.4-1.1-2.1-2.5-2.1-4.3 0-3.5 3.5-7.1 7.4-7.1 1.4 0 2.5.4 3.2 1.4.7-.4.7-.4 1.8-.7.7-.4 1.4-.7 2.1-.7s1.4.4 1.4 1.1c0 .7-.7 1.1-1.4 1.1H163c-.4 0-.7 0-1.1.4.2.7.5 1 .5 1.7"/><path class="st0" d="M173.8 86.9c-1.1 0-2.1-1.1-2.1-2.1s1.1-2.1 2.1-2.1 2.1 1.1 2.1 2.1c0 1.4-1.1 2.1-2.1 2.1m-3.9 22c-1.4 1.4-2.8 2.1-3.9 2.1-.7 0-1.4-.7-1.4-1.4s.4-1.8.7-2.8l.4-.7.4-1.1 4.3-10.3v-.4c0-.4.4-.7.4-.7s0-.4-.4-.4-.7.4-1.4 1.1c-1.1 1.1-2.1 2.5-2.8 3.5l-.7-.4c2.5-3.9 5.7-7.1 7.4-7.1.7 0 1.4.7 1.4 1.4 0 .4 0 .7-.4 1.8-.4.4-.7 1.4-1.1 2.1-.4.7-.4 1.1-.4 1.1l-3.9 9.9v.4l-.4.7c0 .4 0 .4.4.4s.7-.4 2.1-1.8c.7-1.1 1.4-1.8 1.8-2.1l.4.4c-.5 1.4-1.9 2.8-2.9 4.3m20.2-6.4s-.4.4-.4 1.1l-1.1 2.8c-.4 1.1-.7 2.1-.7 2.5s0 .4.4.4 1.1-.7 2.1-1.8c.7-.7 1.1-1.4 1.8-2.1l.4.4c-.7 1.1-1.8 2.5-2.8 3.5-1.8 1.8-2.8 2.5-3.9 2.5-.7 0-1.1-.4-1.1-1.1 0-.4 0-.7.4-2.1 0 0 1.4-3.5 1.4-3.9v-.4c-1.1 1.4-2.5 3.2-3.2 3.9-1.8 2.1-4.3 3.5-5.3 3.5-.7 0-1.4-.7-1.4-1.8s.4-2.1 1.1-3.9l.4-1.1 2.5-6 .4-1.1v-2.1c.4-1.1.7-1.4.7-1.8 0-.4 0-.4-.4-.4s-.7.4-1.4 1.1c-.7.7-1.4 1.8-2.1 2.8l-.4.4-.4.4-.4-.4c2.1-3.9 5.3-7.1 7.1-7.1.7 0 1.1.7 1.1 1.8s-.4 2.5-1.4 4.6l-.4.7-2.8 7.1-.4 1.1-.4 1.1c-.4.7-.4.7-.4 1.1 0 .4.4.7.7.7 1.8 0 6.7-6.4 9.2-12.4l2.1-5h3.2l-4.2 11zm31.5 2.1c-1.1 1.4-2.5 3.2-3.9 4.6-1.4 1.4-2.5 2.1-3.5 2.1-.7 0-1.1-.4-1.1-1.4 0-.4 0-1.1.4-2.1 0-.4.4-.4.7-1.4l.4-.7 4.3-9.2.4-.7c.4-1.1.7-1.1.7-1.4s-.4-.7-.7-.7c-.7 0-1.4.4-2.5 1.8-3.9 3.9-6.7 8.2-9.6 14.2-.4 1.1-.7 1.1-.7 1.4h-3.2c.7-1.1 1.1-2.1 2.5-5.3 1.1-2.5 1.8-4.3 2.5-6 1.4-3.5 1.8-5 1.8-5.7 0-.4-.4-.7-.7-.7-.7 0-1.4.7-2.8 2.5-2.1 2.5-3.9 5-6 8.5-.4.7-.7 1.8-1.8 3.2-1.1 1.8-1.4 2.8-1.8 3.5h-3.2l3.2-7.8c0-.4.4-.7.4-1.1 1.1-2.5 1.8-4.6 2.5-6 .4-1.1.4-1.4.4-1.8 0-.4 0-.4-.4-.4-.7 0-2.5 2.1-4.6 5.7l-.4-.4c2.5-4.6 5.3-7.8 7.1-7.8.7 0 1.1.7 1.1 1.8 0 .7 0 1.1-.4 2.1-.4.7-.7 2.1-1.1 3.2l.7 1.1s0 .4-.4 1.1c.4-.4.4-.7.4-.7l1.4-1.8c1.4-1.8 3.9-4.6 5.3-5.7 1.1-.7 1.4-1.1 2.1-1.1 1.1 0 1.8.7 1.8 1.8 0 .7 0 1.1-.4 2.1-.4 1.1-.7 2.5-1.4 4.3-.7 1.8-.4 1.1-.4 1.8l.7-1.1c2.5-3.5 3.9-5 6-6.7 1.4-1.4 2.8-2.1 3.9-2.1s1.8.7 1.8 1.8c0 .7-.4 1.8-.7 2.5L222 97c0 .4-.4.4-.4.7l-4.3 9.2-.4.7-.4.7s0 .4.4.4c.7 0 1.8-1.1 3.9-3.9l.4-.4c.1-.1.4.2.4.2zm19.5.4c-.4.7-.4 1.4-.7 1.8l-.4 1.4v.7c0 .7.7.7 2.8 1.1l-.4.7h-9.2l.4-.7c2.5-.4 2.8-.4 4.6-5.7l5.7-16.7s-.7.4-1.4.4c-.7.4-2.8.7-2.8.7V88c2.8-1.1 5.7-2.5 8.5-4.3l.4.4c0-.1-7.5 20.9-7.5 20.9zm18.8-19.5c-1.4 0-2.5 1.1-3.9 3.5-1.4 2.5-2.8 6.7-2.8 8.9 0 1.8.7 2.8 2.1 2.8 1.4 0 2.8-1.1 3.9-3.5 1.4-3.2 2.5-6.4 2.5-8.9 0-1.8-.7-2.8-1.8-2.8m-5.6 16.3c-2.5 0-4.6-1.8-4.6-4.6s1.8-6.7 4.3-9.6c1.8-2.1 3.9-3.2 5.7-3.2 2.8 0 5 2.8 5 6.7 0 8.5-7.4 17-17 20.2l-.4-.7c4.6-2.1 7.8-5.3 10.3-9.6-1.6.4-2.3.8-3.3.8m18 6h1.1c2.5 0 2.5 0 3.2-1.8l.7.4-1.8 4.6H262c.7-1.8 1.4-3.5 2.8-5.7 1.8-2.8 3.9-4.6 8.5-8.9 3.9-3.5 5.3-5.3 5.3-7.4 0-1.8-1.4-2.8-3.2-2.8-2.5 0-5 1.8-7.1 5l-1.1-.4c2.5-3.9 6-6 9.6-6 3.2 0 5.3 1.8 5.3 4.3 0 1.4-.7 2.8-1.8 4.3-1.4 1.4-2.1 2.1-6.4 5.3-5.7 4.3-7.8 6.7-9.2 9.6h7.4l.2-.5zm18.5-12.4c-1.4 0-2.8 1.1-3.9 3.5-1.8 3.2-2.5 6.4-2.5 8.5 0 1.8.7 2.8 2.1 2.8 1.1 0 2.5-1.4 4.3-4.3 1.8-2.8 2.8-6.4 2.8-8.2-.3-1.2-1.4-2.3-2.8-2.3m-1.8-.7c.7-.4 1.4-.4 2.5-.4 2.8 0 5 2.1 5 5s-1.8 7.1-4.3 9.9c-1.8 2.1-3.5 2.8-5.7 2.8-2.8 0-5-2.8-5-7.1 0-5 2.8-10.3 7.4-14.2 2.8-2.1 6-4.3 9.9-5.7l.4.7c-4.5 2.2-7.4 4.7-10.2 9M118.4 64.9c7.8 0 23.4-5 23.4-29.4 0-18.8-12.1-31.6-25.9-31.6-14.5 0-24.5 9.6-24.8 28 0 18.8 11.4 33 27.3 33M116.3.4c19.5 0 35.1 12.4 35.1 32.6 0 19.5-14.5 35.8-35.5 35.8-23.8 0-34.4-18.8-34.4-34.4.1-14.2 10.7-34 34.8-34m65.3 35.8V55c0 2.1.7 5 1.4 6 1.1 1.8 3.2 3.5 13.8 3.5 8.2 0 14.5-2.5 19.9-7.4 4.6-4.6 7.1-12.8 7.1-20.9 0-11-5-18.4-8.5-22-8.2-8.5-17-9.2-27.7-9.2-1.8 0-4.3.4-5 .7-.7.4-1.1.7-1.1 1.8.1-.1.1 28.7.1 28.7zM172 61c.4-3.5.4-10.6.4-18.8V1.8c1.1 0 11.3-.4 16.7-.4 8.5 0 25.5-.7 35.8 9.9 4.3 4.6 8.5 11.7 8.5 22.3 0 11-4.6 19.5-9.6 24.5-3.9 3.9-12.4 9.9-27.3 9.9-7.4 0-23.8-1.1-24.5-1.1V61zm81.2 0c.4-3.5.4-10.6.4-18.8V26.6c0-13.5 0-16-.4-18.8l-.4-6.4c1.1 0 3.5.4 5.3.4 1.4 0 3.9-.4 5-.4v40.4c0 8.5 0 15.2.4 18.8l.7 6.4c-1.8 0-2.8-.4-5.7-.4-2.5 0-3.5.4-5.3.4v-6zM51.8 45V34.4c1.4 0 2.8.4 4.6.4 1.4 0 3.2-.4 4.6-.4v25.5c0 3.9 0 4.3-1.1 4.6-5.7 2.8-14.2 3.9-19.5 3.9-8.2 0-21.3-1.4-29.8-9.9C5.3 53.9 0 45 0 34.4 0 20.6 7.1 10.6 14.5 5.7 22.7.7 32.3 0 39 0c5.7 0 12.1 1.1 13.8 1.4 1.8.4 5 .7 7.1.7.7 0 1.1.4 1.1.7 0 1.1-.4.7-.7 9.2 0 1.1-1.1.7-2.1-.4 0 0-1.1-.7-2.1-1.8-2.8-2.5-8.9-6.7-20.2-6.7-5.3 0-11.3.4-17.7 5.3-4.6 4.6-8.5 12.4-8.5 22.7 0 12.4 6 21.3 9.2 24.1 6.7 6.7 13.8 8.9 22 8.9 3.2 0 7.1-.4 9.2-1.4 1.1-.7 1.8-1.4 1.8-3.2-.1.1-.1-14.5-.1-14.5zM335.1 1.4c.7 0 2.8.4 3.9.4h3.2l-4.3 10.3c-.7 2.1-5.3 12.8-9.9 23.4-5.7 12.8-9.6 22.3-11.3 26.6-2.5 5.3-2.8 6.7-3.9 6.7s-1.8-1.1-3.2-5.3l-22-53.9-3.2-8.2c1.8 0 4.6.4 5.7.4.7 0 4.3-.4 5.3-.4 0 0 2.1 7.1 3.5 10.6l16 42.2c5-11.7 16.3-39.7 18.1-45.7.3-1.4 2.1-7.1 2.1-7.1m44 38c.4 0 .4-.4.4-.7l-8.2-23.4c-.4-.7-.7-.7-1.1 0l-7.8 23.4c-.4.4 0 .7.4.7h16.3zm9.9 24.4L381.6 44c0-.4-.4-.4-.7-.4h-19.1c-.4 0-.7.4-.7.7l-5 13.8c-.7 2.1-3.5 9.6-3.5 9.6h-2.8c-1.1 0-2.5.4-3.5 0l3.9-9.6 20.2-54.6c1.1-2.8 1.8-3.5 2.5-3.5.4 0 1.4.7 2.5 3.2 1.4 3.2 15.2 39 20.6 52.5l4 11.3h-9.6l-1.4-3.2z"/></svg>