<svg id="Layer_1" data-name="Layer 1" xmlns="http://www.w3.org/2000/svg" viewBox="0 0 2000 830.42" width="2000" height="830.42"><defs><style>.cls-1{fill:#d6b67a}.cls-2{fill:#fff}</style></defs><path class="cls-1" d="M0 44.03h716.58v10.71H0zM1283.32 44.03h716.58v10.71h-716.58zM1750.52 774.75h249.38v10.71h-249.38zM3.66 774.75h249.38v10.71H3.66z"/><path class="cls-2" d="M592 563.33c39 0 117-25 117-147 0-94-60.5-158-129.5-158-72.5 0-122.5 48-124 140 0 94 57 165 136.5 165m-10.5-322.5c97.5 0 175.5 62 175.5 163 0 97.5-72.5 179-177.5 179-119 0-172-94-172-172 .5-71 53.5-170 174-170m326.5 179v94c0 10.5 3.5 25 7 30 5.5 9 16 17.5 69 17.5 41 0 72.5-12.5 99.5-37 23-23 35.5-64 35.5-104.5 0-55-25-92-42.5-110-41-42.5-85-46-138.5-46-9 0-21.5 2-25 3.5-3.5 2-5.5 3.5-5.5 9 .5-.5.5 143.5.5 143.5zm-48 124c2-17.5 2-53 2-94v-202c5.5 0 56.5-2 83.5-2 42.5 0 127.5-3.5 179 49.5 21.5 23 42.5 58.5 42.5 111.5 0 55-23 97.5-48 122.5-19.5 19.5-62 49.5-136.5 49.5-37 0-119-5.5-122.5-5.5v-29.5zm406 0c2-17.5 2-53 2-94v-78c0-67.5 0-80-2-94l-2-32c5.5 0 17.5 2 26.5 2 7 0 19.5-2 25-2v202c0 42.5 0 76 2 94l3.5 32c-9 0-14-2-28.5-2-12.5 0-17.5 2-26.5 2zm-1007-80v-53c7 0 14 2 23 2 7 0 16-2 23-2v127.5c0 19.5 0 21.5-5.5 23-28.5 14-71 19.5-97.5 19.5-41 0-106.5-7-149-49.5-26.5-23-53-67.5-53-120.5 0-69 35.5-119 72.5-143.5 41-25 89-28.5 122.5-28.5 28.5 0 60.5 5.5 69 7 9 2 25 3.5 35.5 3.5 3.5 0 5.5 2 5.5 3.5 0 5.5-2 3.5-3.5 46 0 5.5-5.5 3.5-10.5-2a58.32 58.32 0 01-10.5-9c-14-12.5-44.5-33.5-101-33.5-26.5 0-56.5 2-88.5 26.5-23 23-42.5 62-42.5 113.5 0 62 30 106.5 46 120.5 33.5 33.5 69 44.5 110 44.5 16 0 35.5-2 46-7 5.5-3.5 9-7 9-16-.5.5-.5-72.5-.5-72.5zm1416.5-218c3.5 0 14 2 19.5 2h16l-21.5 51.5c-3.5 10.5-26.5 64-49.5 117-28.5 64-48 111.5-56.5 133-12.5 26.5-14 33.5-19.5 33.5s-9-5.5-16-26.5l-110-269.5-16-41c9 0 23 2 28.5 2 3.5 0 21.5-2 26.5-2 0 0 10.5 35.5 17.5 53l80 211c25-58.5 81.5-198.5 90.5-228.5 1.5-7 10.5-35.5 10.5-35.5m220 190c2 0 2-2 2-3.5l-41-117c-2-3.5-3.5-3.5-5.5 0l-39 117c-2 2 0 3.5 2 3.5zm49.5 122l-37-99c0-2-2-2-3.5-2H1809a3.76 3.76 0 00-3.5 3.5l-25 69c-3.5 10.5-17.5 48-17.5 48h-14c-5.5 0-12.5 2-17.5 0l19.5-48 101-273c5.5-14 9-17.5 12.5-17.5 2 0 7 3.5 12.5 16 7 16 76 195 103 262.5l20 56.5h-48l-7-16zM815.64 0h77.19v12.42h-31.9v86.36h-13.55V12.42h-31.74zM952.1 0h13.54v44h56.45V0h13.69v98.78h-13.69V56.3h-56.45v42.48H952.1zM1107.75 0h68.58v12.28h-55v30.48h49.26V55h-49.26v31.5H1178v12.28h-70.28zM429.45 745.11a38 38 0 10-15.38 72.61 38.61 38.61 0 0015.24-3.18 44.11 44.11 0 0013.27-8.68l8.18 8.89a54.91 54.91 0 01-17.36 11.5 51.79 51.79 0 01-45.86-2.54 49.82 49.82 0 01-25.26-43.81 48.55 48.55 0 016.85-25.33 49.44 49.44 0 0118.7-18.14 52.52 52.52 0 0126.1-6.63 53.06 53.06 0 0120 3.88 49.22 49.22 0 0116.72 10.94l-8 9.74a40.71 40.71 0 00-13.2-9.25zM580.52 736.43a49.9 49.9 0 0118.84 18.14 48.24 48.24 0 016.92 25.33 49 49 0 01-6.92 25.47 50 50 0 01-18.84 18.34 54.41 54.41 0 01-52.35 0 50 50 0 01-18.84-18.34 49 49 0 01-6.92-25.47 48.24 48.24 0 016.92-25.33 50.11 50.11 0 0118.76-18.14 55.14 55.14 0 0152.43 0zM535.36 747a38.64 38.64 0 00-14 13.75 37.77 37.77 0 000 38.32 39 39 0 0014 13.9 37.32 37.32 0 0019.13 5.15 36.52 36.52 0 0019-5.15 38.71 38.71 0 0013.83-13.9 38.22 38.22 0 000-38.32A38.3 38.3 0 00573.46 747a36.84 36.84 0 00-19-5.08 37.65 37.65 0 00-19.1 5.08zM669.49 730.65H683v86.5h43.18v12.28h-56.69zM787.18 730.65h13.54v86.5h43.19v12.28h-56.73zM904.87 730.65h68.58v12.27h-55v30.49h49.26v12.27h-49.3v31.47h56.74v12.28h-70.28zM1099.19 745.11a38 38 0 10-15.38 72.61 38.61 38.61 0 0015.24-3.18 44.11 44.11 0 0013.27-8.68l8.18 8.89a54.91 54.91 0 01-17.36 11.5 51.79 51.79 0 01-45.86-2.54A49.82 49.82 0 011032 779.9a48.55 48.55 0 016.85-25.33 49.44 49.44 0 0118.7-18.14 52.52 52.52 0 0126.1-6.63 53.06 53.06 0 0120 3.88 49.22 49.22 0 0116.72 10.94l-8 9.74a40.6 40.6 0 00-13.18-9.25zM1170.45 730.65h77.19v12.42h-31.89v86.36h-13.55v-86.36h-31.75zM1306.91 730.65h13.55v98.78h-13.55zM1461.78 736.43a50 50 0 0118.85 18.14 48.33 48.33 0 016.91 25.33 49 49 0 01-6.91 25.47 50.07 50.07 0 01-18.85 18.34 54.41 54.41 0 01-52.35 0 50 50 0 01-18.84-18.34 49 49 0 01-6.92-25.47 48.24 48.24 0 016.92-25.33 50.07 50.07 0 0118.77-18.14 55.12 55.12 0 0152.42 0zM1416.62 747a38.64 38.64 0 00-14 13.75 37.84 37.84 0 000 38.32 39 39 0 0014 13.9 37.35 37.35 0 0019.13 5.15 36.58 36.58 0 0019-5.15 38.87 38.87 0 0013.83-13.9 38.22 38.22 0 000-38.32 38.45 38.45 0 00-13.85-13.75 36.9 36.9 0 00-19-5.08 37.68 37.68 0 00-19.11 5.08zM1621 730.65h13.4v98.78h-13.68l-56.45-76.49v76.49h-13.55v-98.78h13.69l56.59 76.62z"/></svg>